<svg xmlns="http://www.w3.org/2000/svg" width="184" height="20" viewBox="0 0 184 20">
  <path d="M7 7l20-5 4 14-20-5z" fill="#9cd6eb" stroke="#5aaac8" stroke-width="1"/><ellipse cx="9" cy="9" rx="3" ry="5" fill="#fff2fa" stroke="#d986b2" stroke-width="1"/>
  <path d="M38 3l3 2-3 2-3-2zM53 12l4-1 1 4-4 1zM69 3l2 3-2 3-2-3zM81 13l3-2 3 2-3 2zM100 4l4 2-4 2-4-2zM119 12l3-1 1 4-4 1zM139 4l2 3-2 3-2-3zM160 13l3-2 3 2-3 2z" fill="#ffe0a2" stroke="#fff" stroke-width=".5"/>
  <path d="M46 14q4-5 8-1M95 9q4-5 8-1M148 9q4-5 8-1" fill="none" stroke="#fba8ce" stroke-width="1.7" stroke-linecap="round"/>
  <circle cx="30" cy="17" r="1" fill="#fff"/><circle cx="110" cy="16" r="1" fill="#b9e8f4"/><circle cx="176" cy="6" r="1" fill="#fff"/>
</svg>
